<?xml version="1.0" encoding="utf-8"?>
<!-- Generator: Adobe Illustrator 24.3.0, SVG Export Plug-In . SVG Version: 6.00 Build 0)  -->
<svg version="1.1" id="Lag_1" xmlns="http://www.w3.org/2000/svg" xmlns:xlink="http://www.w3.org/1999/xlink" x="0px" y="0px"
	 viewBox="0 0 44 44" style="enable-background:new 0 0 44 44;" xml:space="preserve">
<style type="text/css">
	.st0{fill-rule:evenodd;clip-rule:evenodd; fill:#fff}
</style>
<g id="Symbols">
	<g id="Footer_blå" transform="translate(-1357.000000, -210.000000)">
		<g id="Social-1" transform="translate(1357.000000, 210.000000)">
			<path id="iconfinder_Circled_Facebook_svg_5279111-2" class="st0" d="M18.3,43.1C7.1,41.3-0.8,31.3,0.1,20s10.3-20,21.6-20
				s20.7,8.7,21.6,20c0.9,11.3-7,21.3-18.2,23.1V27.9h5l1-6.3h-6v-4.1c0-1.7,0.8-3.4,3.5-3.4h2.7V8.9c-1.6-0.3-3.2-0.4-4.8-0.4
				c-4.9,0-8.2,3-8.2,8.4v4.8h-5.5v6.3h5.5L18.3,43.1z"/>
		</g>
	</g>
</g>
</svg>
