<?xml version="1.0" encoding="utf-8"?>
<!-- Generator: Adobe Illustrator 24.3.0, SVG Export Plug-In . SVG Version: 6.00 Build 0)  -->
<svg version="1.1" id="Lag_1" xmlns="http://www.w3.org/2000/svg" xmlns:xlink="http://www.w3.org/1999/xlink" x="0px" y="0px"
	 viewBox="0 0 45 45" style="enable-background:new 0 0 45 45;" xml:space="preserve">
<style type="text/css">
	.st0{fill-rule:evenodd;clip-rule:evenodd; fill:#fff}
</style>
<g id="Symbols">
	<g id="Footer_blå" transform="translate(-1416.000000, -209.000000)">
		<g id="Social-2" transform="translate(1416.758000, 209.742000)">
			<path id="iconfinder_Circled_Instagram_svg_5279112-2" class="st0" d="M21.7,0c12,0,21.7,9.7,21.7,21.7s-9.7,21.7-21.7,21.7
				S0,33.6,0,21.7C0,9.7,9.7,0,21.7,0z M21.7,8.1c-3.7,0-4.1,0-5.6,0.1c-1.1,0-2.2,0.2-3.3,0.6c-1.8,0.7-3.3,2.1-4,4
				c-0.4,1.1-0.6,2.2-0.6,3.3c-0.1,1.4-0.1,1.9-0.1,5.6s0,4.1,0.1,5.6c0,1.1,0.2,2.2,0.6,3.3c0.7,1.8,2.1,3.3,4,4
				c1.1,0.4,2.2,0.6,3.3,0.6c1.4,0.1,1.9,0.1,5.6,0.1s4.1,0,5.6-0.1c1.1,0,2.2-0.2,3.3-0.6c1.8-0.7,3.3-2.1,4-4
				c0.4-1.1,0.6-2.2,0.6-3.3c0.1-1.4,0.1-1.9,0.1-5.6s0-4.1-0.1-5.6c0-1.1-0.2-2.2-0.6-3.3c-0.7-1.8-2.1-3.3-4-4
				c-1.1-0.4-2.2-0.6-3.3-0.6C25.8,8.1,25.3,8.1,21.7,8.1z M21.7,10.6c3.6,0,4,0,5.5,0.1c0.9,0,1.7,0.2,2.5,0.5
				c1.2,0.5,2.1,1.4,2.6,2.6c0.3,0.8,0.5,1.7,0.5,2.5c0.1,1.4,0.1,1.9,0.1,5.5s0,4-0.1,5.5c0,0.9-0.2,1.7-0.5,2.5
				c-0.5,1.2-1.4,2.1-2.6,2.6c-0.8,0.3-1.7,0.5-2.5,0.5c-1.4,0.1-1.9,0.1-5.5,0.1s-4,0-5.5-0.1c-0.9,0-1.7-0.2-2.5-0.5
				c-1.2-0.5-2.1-1.4-2.6-2.6c-0.3-0.8-0.5-1.7-0.5-2.5c-0.1-1.4-0.1-1.9-0.1-5.5s0-4,0.1-5.5c0-0.9,0.2-1.7,0.5-2.5
				c0.5-1.2,1.4-2.1,2.6-2.6c0.8-0.3,1.7-0.5,2.5-0.5C17.6,10.6,18,10.6,21.7,10.6z M21.7,14.7c-3.8,0-7,3.1-7,7s3.1,7,7,7
				s7-3.1,7-7S25.5,14.7,21.7,14.7L21.7,14.7z M21.7,26.2c-2.5,0-4.5-2-4.5-4.5s2-4.5,4.5-4.5s4.5,2,4.5,4.5c0,1.2-0.5,2.3-1.3,3.2
				S22.9,26.2,21.7,26.2L21.7,26.2z M30.5,14.4c0,0.9-0.7,1.6-1.6,1.6c-0.9,0-1.6-0.7-1.6-1.6c0-0.9,0.7-1.6,1.6-1.6
				c0.4,0,0.8,0.2,1.1,0.5C30.3,13.6,30.5,14,30.5,14.4L30.5,14.4z"/>
		</g>
	</g>
</g>
</svg>
